# xmcd
#
# Track frame offsets: 
#        150
#        19067
#        36007
#        52377
#        74850
#        85657
#        105507
#        121032
#        137792
#        153070
#        172067
#        186862
#
# Disc length: 2800 seconds
#
# Revision: 1
# Processed by: cddbd v1.5.2PL0 Copyright (c) Steve Scherf et al.
# Submitted via: ExactAudioCopy v0.99pb4
#
DISCID=a20aee0c
DTITLE=Александр Новиков - Ожерелье Магадана
DYEAR=2003
DGENRE=Chanson
TTITLE0=Товарищ Генеральный Секретарь!...
TTITLE1=Ожерелье Магадана
TTITLE2=Женский этап
TTITLE3=Юродивый
TTITLE4=Божьи коровки
TTITLE5=Красные и белые
TTITLE6=О названиях городов
TTITLE7=Трактат о дураках
TTITLE8=Родня
TTITLE9=Дом под снос
TTITLE10=Войнушка
TTITLE11=Серые цветы
EXTD=
EXTT0=
EXTT1=
EXTT2=
EXTT3=
EXTT4=
EXTT5=
EXTT6=
EXTT7=
EXTT8=
EXTT9=
EXTT10=
EXTT11=
PLAYORDER=
